<?xml version="1.0" encoding="UTF-8"?>
<svg id="Layer_2" data-name="Layer 2" xmlns="http://www.w3.org/2000/svg" viewBox="0 0 22 28.76">
  <defs>
    <style>
      .cls-1 {
        fill: #8e9192;
      }
    </style>
  </defs>
  <g id="Layer_1-2" data-name="Layer 1">
    <path class="cls-1" d="M19.47,3.88c.27,.31,.51,.64,.73,.99,.21,.35,.42,.71,.61,1.08,0,.02,0,.03,.01,.04,0,.01,.01,.02,.01,.04,.78,1.52,1.17,3.14,1.17,4.87,0,1.17-.17,2.28-.51,3.35-.34,1.07-.82,2.05-1.44,2.94-.62,.89-1.36,1.68-2.22,2.36-.86,.68-1.79,1.22-2.8,1.63-.87,.33-1.8,.53-2.77,.61-1.46,.16-2.86,.05-4.2-.31-1.34-.36-2.6-.99-3.79-1.91-.54-.45-1.04-.91-1.49-1.38-.45-.48-.85-1-1.19-1.56-.58-.93-1-1.92-1.25-2.97-.04-.16-.07-.31-.1-.47-.03-.16-.06-.31-.1-.47-.04-.27-.07-.53-.09-.79-.02-.25-.04-.51-.06-.79v-.26c0-1.52,.28-2.94,.85-4.28,.21-.45,.44-.88,.68-1.3,.24-.42,.52-.82,.83-1.21,.16-.19,.32-.38,.5-.55,.17-.18,.34-.35,.49-.53,.08-.1,.16-.18,.25-.26,.09-.08,.18-.16,.28-.26,.52,.62,1.06,1.21,1.6,1.78,.04-.12,.06-.22,.07-.32,.01-.1,.03-.19,.07-.29,.21-.83,.59-1.52,1.12-2.05,.53-.53,1.19-.95,1.97-1.24,.54-.19,1.09-.31,1.65-.35,.55-.04,1.12-.04,1.7,0,2.14,.17,4.08,.94,5.83,2.3,.25,.21,.51,.45,.77,.7,.26,.25,.53,.53,.8,.84m-1.84,10.75c.45-.8,.73-1.61,.86-2.45,.13-.84,.11-1.7-.04-2.59-.04-.31-.1-.61-.17-.89-.08-.28-.17-.56-.26-.83-.29,.16-.57,.31-.84,.45-.27,.15-.54,.29-.82,.42-.54,.27-1.1,.48-1.68,.63-.57,.14-1.17,.25-1.79,.31-.52,.06-1.05,.09-1.59,.1-.53,.01-1.06-.03-1.59-.13-.68-.16-1.3-.39-1.86-.71-.56-.32-1.07-.76-1.52-1.33-.21-.25-.38-.53-.5-.83-.12-.3-.21-.62-.29-.95-.04,.02-.08,.05-.12,.09-.04,.04-.09,.09-.15,.15-.06,.06-.11,.12-.15,.17-.7,.84-1.17,1.72-1.41,2.67-.24,.94-.31,1.94-.19,2.99,.16,1.15,.51,2.15,1.05,3.02,.54,.86,1.31,1.58,2.3,2.14,.99,.58,2.01,.94,3.07,1.06,1.06,.13,2.14,.05,3.25-.22,1.96-.47,3.44-1.55,4.43-3.26M9.59,4.05c-.35,.21-.53,.5-.54,.86-.01,.36,.15,.65,.48,.86,.29,.16,.56,.26,.82,.32,.52,.14,1.05,.19,1.57,.16,.52-.03,1.05-.1,1.57-.22,.82-.17,1.57-.51,2.27-.99-.04-.04-.1-.08-.17-.12-.72-.48-1.47-.82-2.24-1.02-.78-.19-1.6-.27-2.48-.23-.49,.04-.91,.17-1.28,.38M4.11,22.2v6.56l5.49-3.28-5.49-3.28Zm13.78,6.56v-6.56l-5.49,3.28,5.49,3.28Z"/>
  </g>
</svg>