<?xml version="1.0" encoding="UTF-8"?>
<svg id="Layer_2" data-name="Layer 2" xmlns="http://www.w3.org/2000/svg" viewBox="0 0 22 22">
  <g id="Layer_1-2" data-name="Layer 1">
    <path d="M11,0c6.07,0,11,4.93,11,11s-4.93,11-11,11S0,17.08,0,11,4.92,0,11,0m0,2.2C6.14,2.2,2.2,6.14,2.2,11s3.94,8.8,8.8,8.8,8.8-3.94,8.8-8.8S15.86,2.2,11,2.2m4.22,3.67c.26-.18,.61-.15,.84,.07,.22,.22,.25,.58,.07,.84-2.4,3.35-3.72,5.15-3.96,5.39-.65,.64-1.69,.64-2.33,0-.64-.64-.64-1.69,0-2.33,.41-.41,2.2-1.73,5.38-3.96m1.83,4.03c.61,0,1.1,.49,1.1,1.1s-.49,1.1-1.1,1.1-1.1-.49-1.1-1.1,.49-1.1,1.1-1.1m-12.1,0c.61,0,1.1,.49,1.1,1.1s-.49,1.1-1.1,1.1-1.1-.49-1.1-1.1,.49-1.1,1.1-1.1m2.55-3.96c.43,.43,.43,1.13,0,1.56-.43,.43-1.13,.43-1.56,0-.43-.43-.43-1.13,0-1.56,.43-.43,1.13-.43,1.56,0m3.5-2.09c.61,0,1.1,.49,1.1,1.1s-.49,1.1-1.1,1.1-1.1-.49-1.1-1.1,.49-1.1,1.1-1.1"/>
  </g>
</svg>