<?xml version="1.0" encoding="UTF-8"?>
<svg id="Layer_2" data-name="Layer 2" xmlns="http://www.w3.org/2000/svg" viewBox="0 0 9.05 9.83">
  <defs>
    <style>
      .cls-1 {
        fill: #45484a;
      }

      .cls-2 {
        fill: #6d7172;
      }
    </style>
  </defs>
  <g id="Layer_1-2" data-name="Layer 1">
    <g>
      <path class="cls-2" d="M9.05,3.99l-.3-2.67c-.02-.26-.21-.34-.42-.19l-.5,.35C7.07,.67,6.02,.12,4.83,.02,2.63-.17,.66,1.19,0,3.2l1.33,.6c.55-1.65,1.71-2.48,3.37-2.33,.75,.07,1.42,.39,1.93,.88l-.44,.32c-.21,.15-.19,.36,.05,.47l2.43,1.13c.24,.11,.41-.01,.38-.27"/>
      <path class="cls-1" d="M0,5.84l.3,2.67c.02,.26,.21,.34,.42,.19l.5-.35c.76,.81,1.8,1.36,3,1.46,2.2,.19,4.17-1.17,4.83-3.18l-1.33-.6c-.55,1.65-1.71,2.48-3.37,2.33-.75-.07-1.42-.39-1.93-.88l.44-.32c.21-.15,.19-.36-.05-.47L.39,5.57c-.24-.11-.41,.01-.38,.27"/>
    </g>
  </g>
</svg>