<?xml version="1.0" encoding="UTF-8"?>
<svg id="Layer_2" data-name="Layer 2" xmlns="http://www.w3.org/2000/svg" viewBox="0 0 13.28 13.2">
  <defs>
    <style>
      .cls-1 {
        fill: #45484a;
      }
    </style>
  </defs>
  <g id="Layer_1-2" data-name="Layer 1">
    <path class="cls-1" d="M13.12,12.27l-4.13-4.13c.67-.86,1.09-1.93,1.09-3.1C10.09,2.26,7.82,0,5.04,0S0,2.26,0,5.04s2.26,5.04,5.04,5.04c1.22,0,2.32-.45,3.19-1.17l4.12,4.12c.11,.11,.24,.16,.38,.16s.28-.05,.38-.16c.21-.21,.21-.56,0-.77M1.09,5.04c0-2.18,1.77-3.96,3.96-3.96s3.96,1.77,3.96,3.96-1.77,3.96-3.96,3.96-3.96-1.77-3.96-3.96"/>
  </g>
</svg>