<?xml version="1.0" encoding="UTF-8"?>
<svg id="Layer_2" data-name="Layer 2" xmlns="http://www.w3.org/2000/svg" viewBox="0 0 15.8 19.48">
  <defs>
    <style>
      .cls-1 {
        fill: #45484a;
      }
    </style>
  </defs>
  <g id="Layer_1-2" data-name="Layer 1">
    <g>
      <path class="cls-1" d="M12.47,16.12c-.92,0-1.68,.75-1.68,1.68s.75,1.68,1.68,1.68,1.68-.75,1.68-1.68-.75-1.68-1.68-1.68m0,2.25c-.32,0-.58-.26-.58-.58s.26-.58,.58-.58,.58,.26,.58,.58-.26,.58-.58,.58m-6.06-2.39c-.93,0-1.68,.75-1.68,1.68s.75,1.68,1.68,1.68,1.68-.75,1.68-1.68-.75-1.68-1.68-1.68m0,2.25c-.32,0-.58-.26-.58-.58s.26-.58,.58-.58,.58,.26,.58,.58-.26,.58-.58,.58M12.35,3.57h-1.81V0h-2.35V3.57h-1.81c-.18,0-.29,.21-.17,.35l1.68,2.13,1.3,1.64c.04,.06,.11,.08,.17,.08s.13-.03,.17-.08l1.19-1.51,1.79-2.27c.12-.14,.01-.35-.17-.35"/>
      <path class="cls-1" d="M15.8,7.07l-.6,4.53c-.03,.25-.24,.45-.49,.48-.34,.03-8.24,.79-9.3,.86-.66,.05-.89,.44-.89,.76,0,.31,.25,.69,.91,.72,1.54,.07,9-.08,9.08-.08h0c.3,0,.54,.24,.55,.54,0,.3-.23,.56-.54,.56-.25,0-5.02,.09-7.68,.09-.64,0-1.16,0-1.46-.02-1.33-.05-1.96-.97-1.97-1.81-.01-.86,.63-1.78,1.89-1.87L1.82,4.14c-.03-.06-.09-.1-.15-.1H.55c-.3,0-.55-.25-.55-.55s.25-.55,.55-.55H1.67c.5,0,.95,.29,1.16,.75l1,2.21,2.51,.12c.3,.01,.53,.27,.53,.56,0,.3-.25,.54-.55,.54l-1.97-.1,2.08,4.58s.03,.09,.04,.14c2.12-.19,6.34-.59,7.71-.72l.46-3.5-2.44-.12c-.3-.02-.54-.27-.52-.58,.01-.3,.26-.54,.58-.52l3.04,.15c.16,0,.3,.08,.4,.19,.1,.12,.14,.27,.12,.43"/>
    </g>
  </g>
</svg>