<?xml version="1.0" encoding="UTF-8"?>
<svg id="Layer_2" data-name="Layer 2" xmlns="http://www.w3.org/2000/svg" viewBox="0 0 12.88 12.89">
  <defs>
    <style>
      .cls-1 {
        fill: #8e9192;
      }
    </style>
  </defs>
  <g id="Layer_1-2" data-name="Layer 1">
    <path class="cls-1" d="M9.72,12.89c-.73-.16-1.42-.32-2.09-.65-.68-.33-1.32-.73-1.92-1.17-1.19-.86-2.26-1.89-3.21-3.02C1.56,6.93,.69,5.63,.25,4.22,.04,3.56-.12,2.77,.13,2.11c.13-.36,.39-.61,.65-.88,.28-.28,.56-.58,.85-.86C2.09-.05,2.74-.13,3.27,.22c.29,.19,.53,.48,.77,.73,.31,.31,.61,.61,.91,.92,.46,.46,.83,1.03,.49,1.68-.31,.58-1.05,.58-1.36,1.16-.34,.63,.06,1.39,.42,1.92,.38,.56,.86,1.07,1.4,1.49,.51,.4,1.24,.89,1.92,.76,.27-.05,.52-.17,.7-.38,.19-.22,.25-.52,.42-.75,.47-.63,1.32-.54,1.84-.05,.34,.32,.67,.65,.99,.98,.29,.29,.64,.58,.88,.92,.45,.65,.15,1.32-.35,1.82-.32,.32-.64,.66-.97,.97-.33,.31-.67,.38-1.09,.49h-.53Z"/>
  </g>
</svg>