<?xml version="1.0" encoding="UTF-8"?>
<svg id="Layer_2" data-name="Layer 2" xmlns="http://www.w3.org/2000/svg" viewBox="0 0 13 10">
  <defs>
    <style>
      .cls-1 {
        fill: #45484a;
      }
    </style>
  </defs>
  <g id="Layer_1-2" data-name="Layer 1">
    <path class="cls-1" d="M11.52,0H1.48C.66,0,0,.66,0,1.48v7.04c0,.16,.03,.32,.08,.46,.1,.33,.33,.61,.62,.8,.23,.14,.49,.22,.78,.22H11.52c.17,0,.33-.03,.48-.09,.34-.11,.62-.34,.78-.64,.15-.22,.22-.48,.22-.75V1.48c0-.82-.66-1.48-1.48-1.48m-.56,1L6.51,5.46s-.09,.03-.13,0L1.93,1H10.96ZM1,1.49l3.29,3.29-3.29,3.28V1.49Zm.48,7.51l3.52-3.51,.68,.68c.2,.2,.47,.31,.76,.31s.57-.11,.77-.31l.53-.52,3.35,3.35H1.48Zm10.52-.51l-3.55-3.55,3.53-3.54s.02,.05,.02,.08v7.01Z"/>
  </g>
</svg>