<?xml version="1.0" encoding="UTF-8"?>
<svg id="Layer_2" data-name="Layer 2" xmlns="http://www.w3.org/2000/svg" viewBox="0 0 16.64 10.49">
  <defs>
    <style>
      .cls-1 {
        fill: #45484a;
      }
    </style>
  </defs>
  <g id="Layer_1-2" data-name="Layer 1">
    <g>
      <path class="cls-1" d="M16.58,4.95c-.04-.11-.08-.21-.11-.32l-.46-1.29c-.29-.82-.59-1.65-.88-2.48-.17-.47-.64-.7-1.11-.54-.36,.12-.71,.26-1.07,.4-.3,.12-.49,.36-.54,.69,0,0,0,0,0,.01-.15,.01-.26,0-.36-.02-.32-.07-.6-.18-.85-.33-.11-.06-.22-.12-.35-.19-.09-.05-.18-.09-.26-.14-.26-.15-.54-.21-.83-.19h-.25c-.36,.03-.74,.06-1.11,.07-.39,.01-.7,.16-.95,.46-.34,.4-.69,.8-1.03,1.2l-.51,.59c-.14,.17-.21,.36-.22,.58,0,.33,.15,.59,.47,.82,.54,.38,1.26,.34,1.75-.09,.12-.11,.25-.22,.37-.34l.02-.02c.13-.12,.26-.25,.4-.36,.31-.26,.38-.6,.41-.86,.02-.19-.11-.35-.29-.39-.19-.03-.38,.08-.42,.27-.01,.04-.02,.08-.02,.13,0,.04-.01,.07-.02,.1,0,.02-.03,.1-.05,.12l-.08,.07c-.26,.25-.53,.5-.8,.74-.28,.23-.69,.2-.95-.07-.07-.08-.07-.15,0-.23,.04-.05,.07-.09,.11-.13l.4-.46c.35-.4,.7-.81,1.04-1.21,.1-.11,.2-.17,.32-.18,.5-.03,.99-.05,1.5-.08,.13,0,.25,.02,.38,.09,.1,.06,.2,.11,.3,.16,.15,.08,.31,.17,.46,.25,.3,.17,.64,.29,.98,.34,.16,.03,.33,.02,.5,.01h.09s1.25,3.51,1.25,3.51l-.7,.43c-.05-.06-.11-.12-.17-.18-.74-.64-1.49-1.27-2.23-1.91l-.85-.73s-.05-.05-.09-.07c-.16-.1-.36-.07-.48,.07-.12,.13-.11,.34,.01,.48,.02,.02,.05,.04,.07,.07l1.49,1.27c.54,.46,1.08,.92,1.61,1.38,.08,.07,.12,.15,.13,.24,0,.08-.02,.16-.08,.22-.12,.14-.28,.14-.44,0-.13-.11-.26-.22-.39-.33l-.45-.38s-.06-.05-.08-.07c-.16-.1-.36-.07-.48,.07-.12,.14-.11,.34,.01,.48,.02,.02,.04,.05,.07,.06l.24,.2c.14,.12,.28,.24,.41,.35,.15,.13,.18,.32,.06,.46-.05,.06-.12,.1-.2,.1-.08,0-.17-.03-.25-.09-.19-.18-.4-.35-.59-.51l-.24-.2s-.07-.06-.12-.08c-.14-.07-.28-.06-.4,.04-.12,.1-.16,.24-.11,.37,.03,.08,.08,.16,.15,.21,.12,.11,.25,.22,.38,.33l.27,.24c.15,.13,.18,.32,.05,.47-.05,.06-.12,.1-.2,.1-.09,0-.17-.03-.24-.09-.19-.17-.39-.34-.58-.51l-.25-.21s-.06-.05-.09-.07c-.16-.1-.36-.07-.48,.07-.12,.14-.11,.34,.01,.48,.02,.02,.04,.04,.07,.07l.23,.19c.15,.13,.3,.26,.45,.39,.12,.11,.14,.29,.04,.42-.04,.05-.2,.19-.38,.08-.02-.02-.05-.03-.09-.05-.16-.06-.35,0-.44,.14-.09,.15-.06,.35,.07,.46,.04,.04,.09,.07,.13,.09,.15,.08,.31,.12,.48,.12,.14,0,.28-.03,.41-.09,.3-.13,.51-.38,.58-.7,0-.02,.01-.05,.02-.08,.01,0,.02,0,.04,0,.25,0,.47-.08,.66-.23,.2-.16,.32-.38,.36-.64,.56,0,.89-.27,1.04-.85,.01,0,.02,0,.04,0,.25,0,.48-.08,.67-.24,.21-.18,.35-.44,.37-.73l.82-.51c.27,.24,.59,.29,.94,.16,.16-.06,.33-.12,.49-.18l.15-.06c.1-.04,.2-.08,.31-.11,.5-.19,.72-.67,.54-1.17m-2.29-3.93h0c.07,0,.12,.02,.16,.13,.08,.23,.17,.46,.25,.69l1.17,3.29,.02,.04s.01,.04,.02,.06c.02,.09-.01,.17-.09,.2-.39,.15-.72,.27-1.03,.38-.11,.05-.16-.04-.19-.11-.08-.23-.17-.46-.25-.7l-1.18-3.33s-.02-.06-.03-.09c-.02-.08,.01-.15,.08-.18,.24-.1,.49-.19,.74-.28l.32-.12s.01,0,.02,0h0Z"/>
      <path class="cls-1" d="M8.42,8.7c-.04-.33-.23-.62-.52-.78,0,0-.02,0-.03-.01,.14-.3,.14-.64,0-.93-.14-.3-.41-.5-.74-.57,0-.35-.14-.63-.41-.84-.27-.2-.57-.26-.89-.17-.05-.16-.14-.31-.26-.43-.38-.38-.97-.4-1.38-.05-.19,.16-.39,.33-.59,.51l-.19,.16-.55-.25,1.22-3.43c.51,.12,.95,.15,1.37,.11,.33-.03,.61-.1,.87-.22,.12-.05,.2-.13,.23-.23,.03-.09,.03-.18-.02-.27-.09-.19-.29-.25-.5-.17h-.04s-.09,.05-.14,.07c-.34,.11-.72,.14-1.15,.08-.13-.02-.27-.04-.4-.07h-.05c-.04-.39-.26-.66-.63-.79-.17-.06-.34-.12-.51-.19l-.43-.16c-.07-.03-.15-.05-.24-.06-.42-.05-.78,.19-.93,.6-.1,.26-.19,.52-.28,.79l-.35,.98C.6,3.14,.33,3.91,.06,4.67c-.17,.49,.05,.97,.55,1.16,.33,.12,.66,.25,.99,.37,.07,.02,.13,.04,.2,.05,.29,.03,.54-.05,.74-.25l.58,.26c-.01,.28,.06,.51,.23,.72,.16,.2,.37,.32,.62,.37,0,.26,.08,.48,.24,.68,.16,.19,.36,.31,.61,.36,0,.26,.08,.48,.24,.68,.16,.19,.37,.32,.61,.36,0,.02,0,.04,0,.06,.03,.41,.23,.71,.58,.89,.15,.07,.31,.11,.46,.11,.21,0,.42-.07,.6-.22,.3-.24,.56-.46,.8-.69,.24-.23,.35-.55,.31-.88m-2.13-2.06c-.17,.15-.35,.3-.53,.45l-.34,.29c-.08,.07-.16,.14-.23,.2-.14,.12-.3,.11-.42-.01-.06-.06-.09-.15-.08-.24,0-.08,.04-.15,.1-.2,.3-.26,.6-.52,.9-.78l.24-.2s.11-.06,.15-.06c.15,0,.26,.08,.3,.2,.05,.13,.02,.26-.09,.35m-.64,1.52c.17-.15,.33-.29,.5-.43l.37-.32c.08-.07,.15-.13,.23-.2,.07-.05,.14-.08,.21-.08s.14,.03,.2,.09c.12,.12,.12,.31,0,.43-.06,.07-.13,.12-.21,.19l-.91,.78c-.07,.06-.12,.08-.2,.08-.12,0-.23-.07-.27-.19-.05-.13-.02-.27,.08-.36m.82,1.08c.24-.22,.5-.45,.8-.68,.08-.07,.21-.04,.27,0,.1,.05,.16,.16,.16,.21,0,.17-.04,.24-.11,.3l-.08,.07c-.21,.18-.41,.36-.62,.53-.13,.11-.29,.1-.4-.02-.06-.06-.09-.15-.09-.23,0-.07,.03-.14,.08-.18m-1.61-3.83c.08,0,.15,.03,.21,.1,.06,.06,.09,.15,.08,.23,0,.08-.04,.15-.1,.21-.25,.23-.5,.44-.74,.63-.03,.03-.1,.05-.12,.05h-.02c-.18,0-.24-.07-.29-.16-.06-.12-.05-.22,.03-.33,.01-.02,.03-.04,.06-.06l.08-.07c.2-.17,.4-.34,.6-.51,.07-.06,.14-.09,.21-.09m-2.79-.02c-.03,.07-.06,.11-.09,.13-.04,.02-.09,.01-.15-.01-.28-.1-.56-.21-.84-.31l-.07-.02c-.17-.06-.2-.12-.14-.29L2.18,.88c.03-.08,.06-.13,.1-.14,.01,0,.03,0,.05,0,.03,0,.07,.01,.12,.03,.16,.06,.32,.12,.48,.18l.46,.17c.09,.03,.12,.08,.13,.17h0s-.02,.08-.03,.13c-.34,.95-.68,1.91-1.02,2.86l-.17,.48c-.08,.22-.15,.43-.23,.65"/>
    </g>
  </g>
</svg>