<?xml version="1.0" encoding="UTF-8"?>
<svg id="Layer_2" data-name="Layer 2" xmlns="http://www.w3.org/2000/svg" viewBox="0 0 15.59 15.59">
  <defs>
    <style>
      .cls-1 {
        fill: #45484a;
      }
    </style>
  </defs>
  <g id="Layer_1-2" data-name="Layer 1">
    <g>
      <path class="cls-1" d="M0,8.83c.04-.22,.07-.45,.12-.67,.4-1.66,1.39-2.83,2.97-3.5,.09-.04,.12-.07,.09-.18-.07-.21-.12-.43-.17-.65-.07-.28,.06-.53,.32-.6,.25-.07,.48,.08,.56,.36,.06,.2,.12,.4,.16,.6,.03,.15,.09,.17,.22,.15,.98-.14,1.91,.01,2.8,.45,1.32,.65,2.18,1.69,2.59,3.1,.06,.2,.03,.38-.13,.52-.16,.14-.34,.14-.53,.05-.41-.2-.84-.26-1.29-.13-.38,.11-.69,.34-.91,.67-.21,.31-.39,.35-.74,.2-.17-.08-.36-.12-.55-.16-.16-.04-.17-.02-.12,.14,.3,1.13,.6,2.25,.9,3.38,.13,.48,.26,.96,.38,1.44,.03,.1,.06,.12,.17,.09,.99-.26,1.99-.53,2.99-.77,.79-.19,1.59-.29,2.4-.26,1.17,.03,2.23,.38,3.16,1.1,.09,.07,.14,.18,.21,.27v.21c-.08,.1-.14,.23-.25,.3-.19,.12-.38,.06-.55-.07-.54-.41-1.15-.68-1.82-.8-.88-.16-1.75-.1-2.61,.09-1.01,.22-2.02,.49-3.02,.75-.95,.25-1.89,.49-2.87,.61-.24,.03-.47,.05-.71,.08h-1.01s-.09-.02-.13-.03c-.78-.06-1.53-.24-2.25-.55-.18-.08-.32-.18-.39-.37v-.21c.19-.35,.38-.42,.76-.25,.72,.31,1.47,.46,2.24,.49,.9,.03,1.78-.1,2.66-.28,.13-.03,.16-.06,.12-.2-.25-.9-.49-1.81-.73-2.71-.18-.69-.37-1.38-.55-2.07-.03-.11-.07-.13-.15-.05-.14,.14-.29,.27-.41,.43-.24,.32-.4,.37-.75,.2-.35-.17-.72-.22-1.1-.13-.45,.1-.8,.35-1.06,.74-.09,.14-.2,.24-.37,.26-.24,.02-.43-.11-.49-.36-.07-.29-.12-.6-.17-.89v-.76Zm3.49-1.29c.05,.35,.09,.7,.14,1.05,.01,.1,.04,.13,.14,.06,.55-.41,1.18-.58,1.86-.49,.11,.01,.12-.01,.09-.11-.32-.97-.86-1.78-1.68-2.4-.08-.06-.11-.06-.15,.04-.25,.59-.37,1.21-.4,1.85m-1,1.36s.06,0,.08,0c.2,.01,.2,.01,.16-.18-.19-.94-.16-1.87,.11-2.8,.01-.04,.01-.08,.02-.11-.04,.02-.07,.03-.11,.05-1.2,.82-1.8,1.95-1.83,3.4,0,.04,.01,.07,.02,.11,.03-.02,.07-.03,.1-.05,.45-.29,.94-.42,1.45-.42m5.67-1.53s.08,0,.12,0c.05,0,.11,0,.16,0-.02-.05-.04-.11-.07-.16-.75-1.22-1.85-1.87-3.27-1.97-.03,0-.07,0-.1,.01,.02,.03,.04,.06,.06,.08,.72,.68,1.22,1.49,1.52,2.44,.03,.1,.06,.13,.16,.06,.43-.29,.9-.44,1.41-.45"/>
      <path class="cls-1" d="M12.03,0c.26,.12,.36,.33,.34,.61-.01,.12,0,.23,0,.35-.01,.25-.21,.44-.45,.44-.23,0-.44-.18-.45-.42-.01-.19-.01-.37,0-.56,.01-.21,.16-.32,.33-.42h.24Z"/>
      <path class="cls-1" d="M15.59,3.81c-.12,.26-.33,.36-.61,.34-.11-.01-.22,0-.33,0-.26,0-.45-.21-.45-.46,0-.25,.2-.45,.46-.45,.11,0,.22,0,.33,0,.28-.03,.49,.07,.61,.34v.24Z"/>
      <path class="cls-1" d="M13.44,3.7c-.01,.86-.7,1.53-1.56,1.52-.85-.01-1.52-.7-1.51-1.55,0-.85,.71-1.53,1.55-1.52,.85,.02,1.52,.7,1.51,1.55m-.91-.01c0-.35-.27-.62-.62-.62-.35,0-.62,.27-.62,.62,0,.35,.27,.62,.62,.62,.35,0,.62-.27,.62-.62"/>
      <path class="cls-1" d="M13.89,2.2c-.22,0-.36-.08-.44-.24-.09-.16-.09-.33,.03-.47,.14-.17,.29-.32,.46-.46,.17-.14,.41-.1,.57,.05,.15,.15,.2,.4,.06,.57-.14,.18-.31,.33-.48,.48-.06,.05-.16,.06-.2,.07"/>
      <path class="cls-1" d="M10.43,5.64s0,.08-.02,.12c-.15,.27-.36,.5-.65,.64-.18,.08-.39,0-.51-.17-.11-.17-.12-.38,.02-.54,.13-.15,.27-.29,.42-.42,.14-.12,.32-.13,.49-.05,.16,.08,.24,.22,.25,.42"/>
      <path class="cls-1" d="M10.44,1.74c-.03,.19-.11,.33-.27,.41-.17,.08-.34,.07-.48-.06-.15-.13-.28-.26-.41-.41-.15-.18-.14-.43,.02-.6s.41-.21,.59-.06c.16,.13,.31,.29,.45,.45,.06,.07,.07,.17,.11,.26"/>
      <path class="cls-1" d="M13.38,5.63c.02-.19,.1-.33,.26-.41,.16-.08,.33-.08,.47,.03,.16,.14,.32,.29,.45,.45,.14,.18,.11,.42-.05,.58-.15,.15-.4,.19-.57,.05-.17-.14-.32-.31-.47-.47-.05-.06-.06-.16-.09-.24"/>
      <path class="cls-1" d="M8.92,4.14c-.08,0-.16,0-.24,0-.25-.01-.46-.22-.45-.46,0-.24,.2-.44,.45-.45,.17,0,.33,0,.5,0,.25,0,.44,.2,.45,.45,0,.25-.19,.45-.45,.46-.09,0-.17,0-.26,0"/>
      <path class="cls-1" d="M11.45,6.66c0-.08,0-.16,0-.24,.01-.26,.22-.45,.47-.45,.24,0,.44,.2,.44,.45,0,.17,0,.33,0,.5,0,.25-.21,.44-.45,.45-.24,0-.44-.19-.46-.44,0-.09,0-.18,0-.27"/>
    </g>
  </g>
</svg>