<?xml version="1.0" encoding="UTF-8"?>
<svg id="Layer_2" data-name="Layer 2" xmlns="http://www.w3.org/2000/svg" viewBox="0 0 15.33 17.51">
  <defs>
    <style>
      .cls-1 {
        fill: #45484a;
      }
    </style>
  </defs>
  <g id="Layer_1-2" data-name="Layer 1">
    <g>
      <path class="cls-1" d="M.44,12.61C.13,12.41,0,12.14,0,11.78c0-.96,0-1.93,0-2.89,0-.58,.36-.94,.94-.94h1.67v-.62c0-.68,.44-1.12,1.12-1.12h4.72c.68,0,1.12,.44,1.12,1.12,0,.2,0,.4,0,.62h.15c.52,0,1.03,0,1.55,0,.54,0,.91,.37,.91,.91,0,.98,0,1.97,0,2.95,0,.32-.12,.57-.37,.76-.04,.03-.06,.11-.06,.17,0,1.27,0,2.54,0,3.8,0,.61-.35,.96-.96,.96H1.4c-.61,0-.96-.36-.96-.96v-3.93Zm10.87-3.79H.88v3.03H11.3v-3.03Zm-3.69,3.91h-3.04c0,.57,0,1.12,0,1.68,0,.31-.17,.48-.48,.48-.4,0-.81,0-1.21,0-.32,0-.49-.17-.49-.49,0-.51,0-1.02,0-1.54v-.14H1.32v3.9H10.87v-3.9h-1.08v.16c0,.51,0,1.02,0,1.54,0,.3-.18,.47-.47,.47-.39,0-.79,0-1.18,0-.35,0-.52-.16-.52-.51v-1.65M3.48,7.93h5.22v-.59c0-.22-.05-.27-.27-.27H3.75s-.05,0-.08,0c-.12,0-.19,.07-.19,.19,0,.22,0,.44,0,.67m.21,4.8h-.42v1.29h.42v-1.29Zm4.8,1.28h.42v-1.29h-.42v1.29Z"/>
      <path class="cls-1" d="M12.58,3.45h.43c.12,0,.22-.1,.22-.22s-.1-.22-.22-.22h-.43c-.05-.11-.14-.19-.25-.23v-.94c0-.12-.1-.22-.22-.22s-.22,.1-.22,.22v.98c-.14,.09-.23,.24-.23,.42,0,.27,.22,.49,.49,.49,.19,0,.36-.11,.44-.27"/>
      <path class="cls-1" d="M12.11,0c-1.78,0-3.23,1.45-3.23,3.23s1.45,3.23,3.23,3.23,3.22-1.45,3.22-3.23-1.45-3.23-3.22-3.23m-2.35,3.45h.02c.12,0,.22-.1,.22-.22s-.1-.22-.22-.22h-.02c.11-1.13,1-2.02,2.13-2.13v.04c0,.12,.1,.22,.22,.22s.22-.1,.22-.22v-.04c1.13,.11,2.02,1,2.13,2.13h-.06c-.12,0-.22,.1-.22,.22s.1,.22,.22,.22h.06c-.11,1.13-1,2.02-2.13,2.13v-.04c0-.12-.1-.22-.22-.22s-.22,.1-.22,.22v.04c-1.13-.11-2.02-1-2.13-2.13"/>
    </g>
  </g>
</svg>