<?xml version="1.0" encoding="UTF-8"?>
<svg id="Layer_2" data-name="Layer 2" xmlns="http://www.w3.org/2000/svg" viewBox="0 0 18 18.27">
  <defs>
    <style>
      .cls-1 {
        fill: #6d7172;
      }
    </style>
  </defs>
  <g id="Layer_1-2" data-name="Layer 1">
    <g>
      <path class="cls-1" d="M9,0c-.75,0-1.36,.61-1.36,1.36v6.96c0,.75,.61,1.36,1.36,1.36s1.36-.61,1.36-1.36V1.36c0-.75-.61-1.36-1.36-1.36"/>
      <path class="cls-1" d="M13.86,1.69c-.22-.14-.47-.22-.73-.22-.47,0-.89,.23-1.14,.62-.2,.3-.26,.67-.18,1.02,.08,.36,.29,.66,.59,.85,1.81,1.16,2.89,3.14,2.89,5.29,0,3.47-2.82,6.28-6.28,6.28s-6.28-2.82-6.28-6.28c0-2.04,1-3.96,2.67-5.14,.3-.21,.49-.52,.56-.88,.06-.36-.02-.72-.23-1.02-.25-.36-.67-.58-1.11-.58-.28,0-.55,.09-.78,.25C1.43,3.6,0,6.35,0,9.27c0,4.96,4.04,9,9,9s9-4.04,9-9c0-3.08-1.55-5.91-4.14-7.58"/>
    </g>
  </g>
</svg>