<?xml version="1.0" encoding="UTF-8"?>
<svg id="Layer_2" data-name="Layer 2" xmlns="http://www.w3.org/2000/svg" viewBox="0 0 30.37 18.78">
  <g id="Layer_1-2" data-name="Layer 1">
    <g>
      <path d="M30.37,9c0,2.24,0,4.48,0,6.72,0,.38-.11,.72-.38,.98-.74,.72-1.92,.38-2.21-.57-.08-.25-.04-.49,0-.73,.06-.39,.12-.78,.18-1.17,.07-.46,.15-.93,.22-1.4,.06-.41,.12-.81,.19-1.22,.06-.39,.14-.78,.2-1.16,0-.02,0-.04,0-.06,.01-.06,0-.08-.06-.08-.09,0-.19,0-.28,0-.19,0-.37-.03-.55-.11-.44-.19-.66-.53-.67-1,0-.33,.02-.66,.03-.99,0-.09,.01-.18,.01-.26,.02-.52,.03-1.03,.05-1.55,.01-.35,0-.69,.04-1.04,.06-.67,.25-1.3,.61-1.87,.44-.7,1.01-1.27,1.75-1.66,.07-.04,.14-.07,.21-.1,.28-.14,.61,.06,.65,.37,0,.07,0,.13,0,.2v6.7"/>
      <path d="M4.38,4.29c0,.67,0,1.34,0,2.01,0,.46-.27,.92-.81,1.08-.13,.04-.28,.04-.42,.04-.11,0-.12,0-.11,.12,0,.2,.02,.41,.04,.61,.02,.25,.04,.5,.05,.76,.02,.31,.03,.61,.05,.92,.03,.45,.06,.9,.09,1.35,.02,.25,.03,.49,.04,.74,.03,.53,.06,1.05,.09,1.58,.02,.31,.03,.61,.04,.92,.02,.41,.05,.82,.07,1.23,.01,.24,0,.48-.14,.7-.23,.39-.57,.62-1.02,.69-.64,.1-1.19-.29-1.4-.76-.08-.17-.11-.36-.1-.55,.02-.41,.04-.82,.07-1.23,.01-.2,.03-.41,.04-.61,.03-.46,.05-.91,.08-1.37,.03-.56,.07-1.13,.1-1.69,.03-.52,.06-1.04,.09-1.56,.03-.56,.07-1.12,.1-1.68,0-.02,0-.04,0-.07,0-.05-.02-.08-.08-.08-.1,0-.2-.01-.29-.02-.39-.02-.86-.39-.93-.89-.01-.09-.02-.19-.02-.28C0,4.96,0,3.65,0,2.33c0-.1,.01-.2,.04-.29,.06-.21,.25-.33,.48-.32,.2,0,.37,.16,.41,.36,.01,.06,.02,.13,.02,.2,0,.78,0,1.56,0,2.34,0,.29,0,.57-.01,.86,0,.1,0,.2,.02,.3,.02,.15,.07,.2,.22,.21,.11,0,.22,0,.33-.01,.14-.02,.2-.09,.21-.23,0-.05,0-.1,0-.15,0-1.08,0-2.16,0-3.24,0-.09,.01-.18,.03-.28,.04-.22,.23-.36,.47-.36,.21,0,.39,.15,.43,.36,.01,.06,.02,.13,.02,.2,0,.74,0,1.48,0,2.23,0,.33-.01,.66-.01,.99,0,.1,0,.21,.03,.31,.02,.1,.07,.18,.18,.18,.13,0,.26,0,.39-.01,.09,0,.13-.06,.15-.13,.02-.08,.03-.17,.03-.26,0-1.09,0-2.19,0-3.28,0-.13,.01-.26,.1-.38,.12-.17,.3-.24,.51-.18,.18,.05,.29,.17,.32,.35,.01,.06,.02,.12,.02,.18,0,.68,0,1.35,0,2.03h0Z"/>
      <path d="M15.56,1.34c4.61,0,8.08,3.69,8.05,8.07-.02,4.59-3.6,8.01-8.02,8.04h-.06c-4.52,0-7.97-3.57-8.03-8.04,.03-4.48,3.53-8.06,8.05-8.07h.02Zm0-1.34h-.02C10.32,.01,6.2,4.14,6.16,9.4c.07,5.27,4.19,9.38,9.37,9.38h.07c5.22-.04,9.32-4.15,9.35-9.37,.01-2.52-.95-4.89-2.72-6.67-1.76-1.77-4.13-2.75-6.67-2.75"/>
      <path d="M13.65,10.76c.25,.54,.62,.96,1.13,1.27,.51,.3,1.07,.44,1.71,.44,.41,0,.82-.08,1.25-.25v1.74c-.38,.11-.82,.17-1.29,.17-1.13,0-2.09-.29-2.92-.89-.83-.59-1.39-1.42-1.7-2.48h-.89l.24-1.01h.48c-.01-.08-.01-.21-.01-.41,0-.18,0-.3,.01-.38h-.72l.25-1.01h.65c.32-1.05,.9-1.87,1.75-2.47,.86-.6,1.82-.9,2.9-.9,.42,0,.84,.06,1.25,.19l-.38,1.62c-.32-.1-.62-.15-.91-.15-.6,0-1.14,.15-1.63,.46s-.89,.71-1.15,1.25h3.33l-.23,1.01h-3.39c-.03,.16-.03,.29-.03,.38,0,.1,0,.24,.03,.41h3.2l-.24,1.01h-2.68Z"/>
    </g>
  </g>
</svg>