<?xml version="1.0" encoding="UTF-8"?>
<svg id="Layer_2" data-name="Layer 2" xmlns="http://www.w3.org/2000/svg" viewBox="0 0 24.01 30.57">
  <g id="Layer_1-2" data-name="Layer 1">
    <g>
      <polygon points="6.36 .32 6.36 6.36 .32 6.36 6.36 .32"/>
      <path d="M4.37,24.02c-1.21,0-2.19-.98-2.19-2.18V8.29H0v13.54c0,2.4,1.97,4.36,4.37,4.36h5.1c-.18-.7-.29-1.43-.29-2.18H4.37Z"/>
      <path d="M20.74,4.37c0-2.4-1.96-4.37-4.37-4.37H8.29V2.18h8.08c1.2,0,2.18,.98,2.18,2.18V15.8c.76,.1,1.49,.29,2.18,.57V4.37Z"/>
      <path d="M17.46,17.47c-3.62,0-6.55,2.93-6.55,6.55s2.93,6.55,6.55,6.55,6.55-2.93,6.55-6.55-2.93-6.55-6.55-6.55m-.43,10.38l-3.4-3.38,1.15-1.17,2.08,2.04,3.5-4.4,1.28,1.02-4.61,5.89Z"/>
      <rect x="4.37" y="9.83" width="2.18" height="2.18"/>
      <rect x="4.37" y="14.19" width="2.18" height="2.18"/>
      <rect x="4.37" y="18.56" width="2.18" height="2.18"/>
      <rect x="8.73" y="10.92" width="7.64" height="1.09"/>
      <rect x="8.73" y="15.28" width="5.46" height="1.09"/>
    </g>
  </g>
</svg>