<?xml version="1.0" encoding="UTF-8"?>
<svg id="Layer_2" data-name="Layer 2" xmlns="http://www.w3.org/2000/svg" viewBox="0 0 22 22">
  <g id="Layer_1-2" data-name="Layer 1">
    <g>
      <path d="M10.99,7.32h0c-2.03,0-3.68,1.65-3.68,3.68s1.65,3.68,3.68,3.68,3.68-1.65,3.68-3.68c0-2.03-1.65-3.68-3.68-3.68m2.14,3.68c0,1.18-.96,2.14-2.14,2.14h-.09c-.54-.02-1.04-.24-1.42-.62-.4-.4-.63-.94-.63-1.51s.22-1.11,.63-1.51c.4-.4,.94-.63,1.51-.63,1.18,0,2.14,.96,2.14,2.14"/>
      <path d="M20.07,8.01h-.93l-.27-.66,.66-.66c.75-.75,.75-1.97,0-2.73l-1.5-1.5c-.75-.75-1.98-.75-2.73,0l-.66,.66-.66-.28v-.93c0-1.06-.87-1.93-1.93-1.93h-2.11c-1.06,0-1.93,.87-1.93,1.93v.93l-.66,.28-.65-.66c-.75-.75-1.98-.75-2.73,0l-1.5,1.5c-.75,.75-.75,1.97,0,2.73l.66,.66-.27,.66h-.93c-1.06,0-1.93,.87-1.93,1.93v2.11c0,1.06,.87,1.93,1.93,1.93h.93l.27,.66-.66,.66c-.75,.75-.75,1.98,0,2.73l1.5,1.49c.75,.75,1.98,.75,2.73,0l.65-.65,.66,.27v.93c0,1.06,.87,1.93,1.93,1.93h2.11c1.06,0,1.93-.87,1.93-1.93v-.93l.66-.27,.66,.65c.75,.75,1.98,.75,2.73,0l1.5-1.49c.75-.75,.75-1.98,0-2.73l-.66-.66,.27-.66h.93c1.06,0,1.93-.87,1.93-1.93v-2.11c0-1.06-.87-1.93-1.93-1.93m-2.15,4.91l-.67,1.61c-.12,.29-.05,.62,.17,.84l1.02,1.02c.15,.15,.15,.4,0,.55l-1.49,1.49c-.15,.15-.4,.15-.55,0l-1.02-1.02c-.22-.22-.55-.29-.84-.17l-1.61,.67c-.29,.12-.48,.4-.48,.71v1.44c0,.21-.17,.39-.39,.39h-2.11c-.22,0-.39-.18-.39-.39v-1.44c0-.31-.19-.59-.48-.71l-1.61-.67c-.09-.04-.19-.06-.29-.06h0c-.2,0-.4,.08-.54,.22l-1.02,1.02c-.15,.15-.4,.15-.54,.01l-1.5-1.5c-.15-.15-.15-.4,0-.55l1.02-1.02c.22-.22,.29-.55,.17-.84l-.67-1.61c-.12-.29-.4-.47-.71-.47H1.93c-.21,0-.39-.17-.39-.39v-2.11c0-.22,.17-.39,.39-.39h1.44c.31,0,.59-.19,.71-.47l.67-1.61c.12-.29,.05-.62-.17-.84l-1.02-1.02c-.15-.15-.15-.4,0-.55l1.5-1.49c.15-.15,.4-.15,.55,0l1.02,1.02c.22,.22,.55,.29,.84,.17l1.61-.67c.29-.12,.48-.4,.48-.71V1.93c0-.21,.17-.39,.39-.39h2.11c.22,0,.39,.18,.39,.39v1.44c0,.31,.19,.59,.48,.71l1.61,.67c.29,.12,.62,.05,.84-.17l1.02-1.02c.15-.15,.4-.15,.55,0l1.49,1.49c.15,.15,.15,.4,0,.55l-1.02,1.02c-.22,.22-.29,.55-.17,.84l.67,1.61c.12,.29,.4,.47,.71,.47h1.44c.22,0,.39,.18,.39,.39v2.11c0,.21-.17,.39-.39,.39h-1.44c-.31,0-.59,.19-.71,.47"/>
    </g>
  </g>
</svg>