<?xml version="1.0" encoding="UTF-8"?>
<svg id="Layer_2" data-name="Layer 2" xmlns="http://www.w3.org/2000/svg" viewBox="0 0 27.85 24.59">
  <g id="Layer_1-2" data-name="Layer 1">
    <g>
      <path d="M22.15,24.59c-3.14,0-5.69-2.55-5.69-5.69s2.55-5.69,5.69-5.69,5.69,2.55,5.69,5.69-2.55,5.69-5.69,5.69m0-9.74c-2.23,0-4.05,1.81-4.05,4.04s1.81,4.05,4.05,4.05,4.05-1.81,4.05-4.05-1.81-4.04-4.05-4.04"/>
      <path d="M6.68,0c-.68,0-1.24,.56-1.24,1.24v3.82c0,.68,.56,1.24,1.24,1.24s1.24-.56,1.24-1.24V1.24c0-.68-.56-1.24-1.24-1.24"/>
      <path d="M14.08,0c-.68,0-1.24,.56-1.24,1.24v3.82c0,.68,.56,1.24,1.24,1.24s1.24-.56,1.24-1.24V1.24c0-.68-.56-1.24-1.24-1.24"/>
      <path d="M18.33,4.16h-1.57v.9c0,1.48-1.21,2.69-2.69,2.69s-2.69-1.21-2.69-2.69v-.89h-2.01v.89c0,1.48-1.21,2.69-2.69,2.69s-2.69-1.21-2.69-2.69v-.89h-1.1c-1.6,.09-2.89,1.39-2.89,2.97v12.5c0,1.64,1.38,2.98,3.06,2.98h13.38c-.31-.47-.56-.99-.75-1.54h-1.2v-5.07h1.48c.2-.43,.45-.83,.73-1.21h-2.21v-5.3h5.14v3.05c.56-.22,1.15-.38,1.76-.44V7.14c0-1.64-1.38-2.98-3.06-2.98M6.98,21.08H3.98c-1.22,0-2.22-.97-2.22-2.15v-2.92H6.98v5.07Zm0-6.28H1.76v-5.3H6.98v5.3Zm6.29,6.28h-5.08v-5.07h5.08v5.07Zm0-6.28h-5.08v-5.3h5.08v5.3Z"/>
      <path d="M24.66,16.57l-2.16,1.02c-.11-.03-.23-.05-.35-.05-.75,0-1.35,.61-1.35,1.36s.61,1.35,1.35,1.35,1.35-.61,1.35-1.35c0-.09,0-.18-.03-.27l1.17-2.05Z"/>
    </g>
  </g>
</svg>