<?xml version="1.0" encoding="UTF-8"?>
<svg id="Layer_2" data-name="Layer 2" xmlns="http://www.w3.org/2000/svg" viewBox="0 0 9.05 10.86">
  <defs>
    <style>
      .cls-1 {
        fill: #45484a;
      }

      .cls-2 {
        fill: #6d7172;
      }
    </style>
  </defs>
  <g id="Layer_1-2" data-name="Layer 1">
    <g>
      <path class="cls-2" d="M4.63,0c.27,.1,.38,.3,.36,.58,0,.12-.04,.26,.02,.34,.05,.07,.2,.06,.31,.09,1.28,.34,2.2,1.39,2.36,2.71,.03,.26,.02,.52,.02,.77,0,.41-.01,.82,.03,1.22,.08,.74,.41,1.36,.96,1.87,.17,.15,.31,.31,.35,.54,.07,.47-.23,.87-.7,.92-.05,0-.1,0-.15,0-2.44,0-4.88,0-7.33,0-.35,0-.62-.14-.79-.46-.16-.32-.08-.69,.2-.93,.36-.32,.65-.7,.84-1.14,.15-.36,.24-.73,.24-1.12,0-.43,0-.86,0-1.29,0-1.58,1.09-2.87,2.64-3.15,.05-.01,.08-.03,.08-.09,0-.1,0-.21,0-.31-.02-.28,.09-.47,.36-.56h.19Z"/>
      <path class="cls-1" d="M4.35,10.86c-.21-.07-.43-.11-.63-.21-.43-.22-.7-.59-.84-1.05-.02-.08,0-.09,.07-.09,1.05,0,2.09,0,3.14,0,.08,0,.09,.03,.07,.1-.16,.64-.73,1.15-1.39,1.24-.02,0-.05,.01-.07,.02h-.36Z"/>
    </g>
  </g>
</svg>